<?xml version="1.0" standalone="no"?>
<!DOCTYPE svg PUBLIC "-//W3C//DTD SVG 20010904//EN"
 "http://www.w3.org/TR/2001/REC-SVG-20010904/DTD/svg10.dtd">
<svg version="1.0" xmlns="http://www.w3.org/2000/svg"
 width="200.000000pt" height="200.000000pt" viewBox="0 0 200.000000 200.000000"
 preserveAspectRatio="xMidYMid meet">

<g transform="translate(0.000000,200.000000) scale(0.100000,-0.100000)"
fill="navajowhite" stroke="none">
<path d="M420 1102 l0 -408 158 -12 c167 -13 285 -39 334 -73 l28 -20 0 408
c0 392 -1 409 -20 441 -38 62 -79 72 -302 72 l-198 0 0 -408z"/>
<path d="M1205 1503 c-11 -3 -32 -14 -48 -25 -57 -41 -57 -41 -57 -481 l0
-404 58 29 c67 32 180 53 345 63 l117 7 0 409 0 409 -197 -1 c-109 -1 -207 -4
-218 -6z"/>
<path d="M208 1374 c-15 -8 -40 -36 -55 -62 l-28 -47 0 -352 c0 -339 1 -352
21 -379 46 -63 61 -68 234 -76 244 -11 351 -38 510 -129 30 -17 50 -19 140
-17 100 3 107 5 151 35 103 72 235 103 471 112 181 7 195 11 242 75 20 27 21
40 21 379 l0 352 -28 47 c-27 46 -69 78 -102 78 -13 0 -15 -44 -15 -388 l0
-388 -162 -12 c-90 -7 -193 -19 -229 -27 -150 -33 -249 -88 -278 -156 l-16
-39 -67 0 -66 0 -12 35 c-33 100 -209 165 -506 187 l-164 12 0 388 c0 363 -1
388 -17 388 -10 -1 -30 -7 -45 -16z"/>
</g>
</svg>
