<?xml version="1.0" standalone="no"?>
<svg xmlns:xlink="http://www.w3.org/1999/xlink" id="wave" style="transform:rotate(0deg); transition: 0.3s; opacity: 0.5;" viewBox="0 0 1440 490" version="1.1" xmlns="http://www.w3.org/2000/svg"><defs><linearGradient id="sw-gradient-0" x1="0" x2="0" y1="1" y2="0"><stop stop-color="rgba(234.964, 234.964, 234.964, 1)" offset="0%"/><stop stop-color="rgba(253.179, 253.179, 253.179, 1)" offset="100%"/></linearGradient></defs><path style="transform:translate(0, 0px); opacity:1" fill="url(#sw-gradient-0)" d="M0,343L80,326.7C160,310,320,278,480,277.7C640,278,800,310,960,285.8C1120,261,1280,180,1440,130.7C1600,82,1760,65,1920,57.2C2080,49,2240,49,2400,98C2560,147,2720,245,2880,253.2C3040,261,3200,180,3360,147C3520,114,3680,131,3840,138.8C4000,147,4160,147,4320,187.8C4480,229,4640,310,4800,343C4960,376,5120,359,5280,302.2C5440,245,5600,147,5760,106.2C5920,65,6080,82,6240,106.2C6400,131,6560,163,6720,179.7C6880,196,7040,196,7200,220.5C7360,245,7520,294,7680,326.7C7840,359,8000,376,8160,359.3C8320,343,8480,294,8640,236.8C8800,180,8960,114,9120,147C9280,180,9440,310,9600,310.3C9760,310,9920,180,10080,130.7C10240,82,10400,114,10560,106.2C10720,98,10880,49,11040,40.8C11200,33,11360,65,11440,81.7L11520,98L11520,490L11440,490C11360,490,11200,490,11040,490C10880,490,10720,490,10560,490C10400,490,10240,490,10080,490C9920,490,9760,490,9600,490C9440,490,9280,490,9120,490C8960,490,8800,490,8640,490C8480,490,8320,490,8160,490C8000,490,7840,490,7680,490C7520,490,7360,490,7200,490C7040,490,6880,490,6720,490C6560,490,6400,490,6240,490C6080,490,5920,490,5760,490C5600,490,5440,490,5280,490C5120,490,4960,490,4800,490C4640,490,4480,490,4320,490C4160,490,4000,490,3840,490C3680,490,3520,490,3360,490C3200,490,3040,490,2880,490C2720,490,2560,490,2400,490C2240,490,2080,490,1920,490C1760,490,1600,490,1440,490C1280,490,1120,490,960,490C800,490,640,490,480,490C320,490,160,490,80,490L0,490Z"/></svg>
